<svg version="1.1" xmlns="http://www.w3.org/2000/svg" xmlns:xlink="http://www.w3.org/1999/xlink" x="0px" y="0px"
	 viewBox="0 0 1366 768" style="enable-background:new 0 0 1366 768;" xml:space="preserve">

<g id="mapa">
	<path class="st0" d="M977.5,330.5c-8.4,6.5-16.8,13-25.1,19.7c-9.4,7.6-19.3,14.7-27.6,23.4c-7.7,8.1-16.1,15.3-23.7,23.3
		c-5.6,5.9-8.7,12.7-8.4,21c0.3,6.5-1.9,12.5-5.1,18c-4.5,7.8-9.5,15.2-14.3,22.9c-2.5,3.9-5,7.8-7.3,11.8
		c-5.2,9.2-12.5,16.6-20.4,23.3c-6.3,5.4-13.1,10.4-19.8,15.3c-4.8,3.6-7.8,8.4-10.1,13.7c-4.5,10.3-6.7,21.3-8.6,32.3
		c-2.4,13.6-4.7,27.3-7.3,40.9c-0.7,3.8-3,7.4-3.8,11.2c-1.5,6.8-0.8,13.8,0.8,20.5c3.9,17.2,8.3,34.3,12.4,51.4
		c0.4,1.7,0.8,3.3,1.2,5c1.2,4.3,0.2,8.2-2,11.9c-4.3,7.3-10.2,13.2-16.3,18.9c-0.4,0.3-0.8,0.6-1.1,1c-6.5,7.8-14.9,8.5-23.7,5.5
		c-9.1-3.1-18-6.7-26.9-10.4c-18.7-7.7-35.3-19.2-52.2-29.9c-6.9-4.4-13.8-8.9-21-12.7c-9.9-5.3-20.5-6-31.6-3.9
		c-12.3,2.4-24.8,4-37.2,5.5c-9.6,1.2-19.4,1.7-29.1,2.4c-0.2,0-0.5,0-0.7,0c-6,0.2-6.3,0-6.6-6c-0.3-4.9-2.3-9.2-5.5-12.7
		c-10.6-11.6-7.4-30.2,0.5-39.5c5.6-6.6,8.2-14.7,10.1-22.9c1.5-6.4,2.2-12.9,3-19.4c0.9-7.6-2-13.7-8.3-18c-4.9-3.3-10-6.4-15-9.4
		c-7.5-4.6-14.9-9.3-20.4-16.3c-4.4-5.6-7.3-11.8-6.9-19.2c0.2-4.1,1.8-7.6,4.4-10.8c1.3-1.6,2.3-3.8,2.5-5.8
		c0.7-7.2-1.2-14.2-3.3-21c-5-16.5-12-32-22.3-45.9c-3-4.1-6.9-7.5-10.3-11.3c-1.9-2.1-3.8-4.2-5.3-6.6c-4.6-7.3-4.5-14.8,0.5-21.9
		c2.4-3.4,5.4-6.5,8.4-9.4c7.4-6.9,11-15,8.8-25.1c-3.9-18.6-7.9-37.2-12.2-55.7c-1.1-4.8-3.2-9.4-5.4-13.8
		c-1.6-3.1-3.7-6.2-6.2-8.6c-2.9-2.7-4.7-5.8-5.3-9.5c-1.9-10.2-3.4-20.4-5.4-30.6c-1.7-8.5-3.6-16.9-5.7-25.3
		c-1.2-4.6-3.7-8.4-7.9-11.3c-4.7-3.2-5.8-8.6-6.8-13.8c-1.1-6.1-1.6-12.2-3-18.2c-1-3.9-2.8-7.8-5-11.2c-3.3-5.2-4-10.2-1.1-15.6
		c1.6-3,3.5-5.9,5.5-8.6c5.6-7.1,6.8-15.3,6.2-23.9c-0.5-6.9-1.3-13.9-2-20.8c-0.4-3.7,1.4-6.1,5.1-5.6c4.2,0.5,8.6,1.2,12.4,3
		c9.4,4.3,18.7,5.9,28.9,3.5c12.7-3,25.5-5.2,38.2-8c4.2-0.9,8.2-2.7,11.5-6c1.2-1.2,3.6-1.8,5.4-1.6c7.1,0.8,14.3,1.8,21.3,3.1
		c7.4,1.4,14.6,3.5,22,5.1c1.8,0.4,3.8-0.1,5.7,0c3,0.2,6,0.3,8.9,0.9c17.2,3.9,34,9.1,50.3,15.7c9.4,3.8,18,9.6,26.9,14.5
		c13,7.1,26,14.2,39.1,21.1c2.5,1.3,5.3,2,8,2.9c0.8,0.2,1.7,0.5,2.4,0.3c4.3-1.2,7.7,0.8,10.6,3.4c5.7,5.1,11.5,10.1,16.4,15.9
		c11.1,12.9,24.9,14.8,40.4,11.1c6.6-1.6,10.3-0.3,12.8,6c1.8,4.6,2.9,9.4,4.2,14.2c0.8,2.9,1.9,5.5,4,7.8
		c5.9,6.5,11.4,13.3,17.2,19.9c3.5,4,7.3,7.3,12.1,9.9c6.4,3.5,12.4,8,18.3,12.4c16.8,12.6,33.3,25.6,48.2,40.5
		c3.8,3.7,7,8.1,10.2,12.4c4.3,5.7,9.5,10.4,15.1,14.8c7.3,5.8,14.9,11.2,22.2,17.1c3.9,3.2,7.4,6.9,11.1,10.4
		C977.5,329.6,977.5,330,977.5,330.5z M764.1,708.3c2.4-0.9,5.1-1.3,7-2.9c7.2-5.9,13.5-12.6,18.8-20.3c3.8-5.5,4.9-11.2,3-17.7
		c-5-16.6-9.8-33.2-13.2-50.2c-1.6-7.7-1.7-15,1.4-22.3c2.2-5.1,4-10.5,5.1-15.9c3.5-17.2,4.2-34.7,5-52.2c0.4-10,4.9-17.4,14-21.6
		c10.4-4.7,19.5-11.3,28.1-18.5c6.2-5.2,11.9-10.8,15.9-17.9c2.5-4.5,5.2-8.8,7.9-13.1c2.8-4.5,5.8-9,8.6-13.6
		c4.3-7.2,6.9-14.9,6.6-23.5c-0.2-5.2,1.1-10.3,3.4-15.1c5.3-10.9,12.1-20.8,20.5-29.4c7.6-7.8,16.4-14.4,24.9-21.4
		c8.4-6.9,17-13.5,25.5-20.3c2.4-1.9,2.5-2.9,0.3-5.1c-2.1-2-4.4-3.9-6.7-5.6c-7.1-5.3-14.4-10.3-21.3-15.8c-3.7-3-6.8-6.7-9.9-10.3
		c-3.5-4-6.4-8.6-10.1-12.4c-16.6-16.8-34.9-31.5-53.8-45.6c-3.4-2.5-7-4.7-10.5-7.1c-2.3-1.6-5-2.8-6.9-4.8
		c-7.7-7.7-15-15.7-22.6-23.4c-2.1-2.1-3-4.5-3.7-7.2c-1.1-4.6-2.2-9.3-3.8-13.8c-1.7-5-5.2-7.6-11.9-5.8
		c-13.2,3.6-25.4,1.8-34.6-9.8c-0.7-0.8-1.4-1.6-2.1-2.4c-4.6-4.7-9.1-9.5-13.8-14c-2.4-2.2-5.2-3.9-8.8-2.8c-0.6,0.2-1.5,0-2.1-0.3
		c-2.8-1-5.7-1.9-8.3-3.3c-10.5-5.9-20.9-12.1-31.3-18.2c-8.8-5.2-17.1-11.5-26.5-15.3c-14.3-5.8-29.2-10-43.9-14.7
		c-2.5-0.8-5.2-0.8-7.9-1c-2-0.1-4.1,0.4-6-0.1c-5.7-1.3-11.3-3.1-16.9-4.3c-6.6-1.4-13.3-2.6-20-3.5c-1.7-0.2-4.3,0.3-5.4,1.5
		c-3.5,3.7-7.9,5.5-12.5,6.5c-11.9,2.7-24,4.8-35.9,7.5c-7.1,1.6-13.6,0.6-20.1-2.2c-0.1,0-0.1-0.1-0.2-0.1c-3.8-1-7.6-2.2-11.5-2.9
		c-3.6-0.7-5.6,1.2-5.3,4.4c0.5,5.6,1.1,11.3,1.6,16.9c0.9,9.7-0.4,18.9-6.5,27c-1.8,2.3-3.2,5.1-4.4,7.8c-1.8,4.1-1.6,8.4,1,12.1
		c4.4,6.1,5.7,12.9,6.3,20.1c0.5,5.2,1.3,10.6,6.1,13.8c4.3,2.9,6.7,7,7.4,11.8c1.5,9.8,2.6,19.6,3.5,29.4c0.8,8.9,0.8,18,4.9,26.3
		c1.6,3.3,3.1,6.8,4.6,10.2c4,9.1,9.1,17.9,11.8,27.4c4.6,15.9,7.6,32.3,11.4,48.4c2.6,10.8-0.4,19.8-8.4,27.3
		c-2.4,2.3-4.5,4.9-6.3,7.7c-4.5,6.8-4.7,13.8-0.5,20.9c1.3,2.2,2.8,4.4,4.6,6.2c8.4,8.1,14.2,17.8,19.1,28.2
		c6,12.7,10.8,25.9,12.7,39.9c0.6,4.9,0.8,9.6-3.1,13.6c-1.3,1.3-2,3.5-2.4,5.5c-1.8,8.3,1.2,15.5,6.1,22
		c4.5,6.1,10.6,10.4,16.9,14.5c4.9,3.3,9.9,6.4,14.7,10c4.7,3.5,7.2,8.3,6.8,14.3c-0.4,5.7-0.4,11.4-1.2,17
		c-2,15.5-4.4,30.8-13.7,44.1c-4.6,6.5-4,12.8,1.1,18.9c3.5,4.1,5.5,8.9,6.3,14.3c0.4,3.1,1.2,3.8,4.3,3.7c5.6-0.2,11.2-0.3,16.7-1
		c12.9-1.5,25.7-3.3,38.5-5.1c4.9-0.7,9.7-2.1,14.6-2.5c9.3-0.7,17.5,2.8,25.1,7.9c7.5,5,15,10,22.3,15.2
		c16.8,11.9,34.6,22,53.7,29.7C752.8,705.9,758.2,707.5,764.1,708.3z"/>
</g>
<g id="Cidades">
	<text transform="matrix(1 0 0 1 650 197.3335)" class="st1 st2">PACATUBA</text>
	<text transform="matrix(1 0 0 1 765 248.3335)" class="st1 st2">BATURITÉ</text>
	<text transform="matrix(1 0 0 1 655 295.3335)" class="st1 st2">CAIO PRADO</text>
	<text transform="matrix(1 0 0 1 792 324.3335)" class="st1 st2">QUIXADÁ</text>
	<text transform="matrix(1 0 0 1 640 388.3335)" class="st1 st2">QUIXERAMOBIM</text>
	<text transform="matrix(1 0 0 1 676 458.3335)" class="st1 st2">PIQUET CARNEIRO</text>
	<text transform="matrix(1 0 0 1 686 503.3335)" class="st1 st2">ACOPIARA</text>
	<text transform="matrix(1 0 0 1 681 564.3335)" class="st1 st2">IGUATU</text>
	<text transform="matrix(1 0 0 1 716 622.3335)" class="st1 st2">BAIXIO</text>
	<text transform="matrix(1 0 0 1 824 385.3335)"><tspan x="0" y="0" class="st1 st2">SENADOR</tspan><tspan x="0" y="14.4" class="st1 st2">POMPEU</tspan></text>
	<text transform="matrix(1 0 0 1 774 148.3335)" class="st1 st2">FORTALEZA</text>
</g>
<g id="trilho">
	<g>
		<g>
			<g class="st3">
				<g>
					<g>
						
							<rect x="737.9" y="148" transform="matrix(0.9437 -0.3307 0.3307 0.9437 -7.3277 255.1748)" class="st0" width="16.9" height="2.2"/>
					</g>
					<g>
						
							<rect x="741.3" y="156" transform="matrix(0.9506 -0.3105 0.3105 0.9506 -11.7033 240.7094)" class="st0" width="18" height="2.2"/>
					</g>
					<g>
						
							<rect x="721.2" y="261.6" transform="matrix(0.7845 -0.6201 0.6201 0.7845 -5.6543 509.0677)" class="st0" width="16.9" height="2.2"/>
					</g>
					<g>
						
							<rect x="726.9" y="267.8" transform="matrix(0.7767 -0.6299 0.6299 0.7767 -5.1543 523.3282)" class="st0" width="17.3" height="2.2"/>
					</g>
					<g>
						
							<rect x="732.5" y="273.6" transform="matrix(0.7767 -0.6299 0.6299 0.7767 -7.4986 528.1695)" class="st0" width="17.3" height="2.2"/>
					</g>
					<g>
						
							<rect x="738.2" y="279.3" transform="matrix(0.7767 -0.6299 0.6299 0.7767 -9.8426 533.0106)" class="st0" width="17.3" height="2.2"/>
					</g>
					<g>
						
							<rect x="746.1" y="291.9" transform="matrix(0.9577 -0.2877 0.2877 0.9577 -52.3754 229.5043)" class="st0" width="17.3" height="2.2"/>
					</g>
					<g>
						
							<rect x="748.3" y="301" transform="matrix(0.9577 -0.2877 0.2877 0.9577 -54.9052 230.5283)" class="st0" width="17.3" height="2.2"/>
					</g>
					<g>
						
							<rect x="750.5" y="310.1" transform="matrix(0.9577 -0.2877 0.2877 0.9577 -57.4352 231.5524)" class="st0" width="17.3" height="2.2"/>
					</g>
					<g>
						
							<rect x="752.7" y="319.2" transform="matrix(0.9577 -0.2877 0.2877 0.9577 -59.9651 232.5766)" class="st0" width="17.3" height="2.2"/>
					</g>
					<g>
						
							<rect x="754.9" y="328.3" transform="matrix(0.9577 -0.2877 0.2877 0.9577 -62.495 233.6007)" class="st0" width="17.3" height="2.2"/>
					</g>
					<g>
						
							<rect x="757.2" y="337.5" transform="matrix(0.9577 -0.2877 0.2877 0.9577 -65.025 234.6248)" class="st0" width="17.3" height="2.2"/>
					</g>
					<g>
						
							<rect x="758.2" y="347.7" transform="matrix(0.9997 -2.435496e-02 2.435496e-02 0.9997 -8.2677 18.7804)" class="st0" width="17.3" height="2.2"/>
					</g>
					<g>
						
							<rect x="758.2" y="356.8" transform="matrix(0.9997 -2.435496e-02 2.435496e-02 0.9997 -8.4895 18.7817)" class="st0" width="17.3" height="2.2"/>
					</g>
					<g>
						
							<rect x="757.5" y="364.8" transform="matrix(0.9998 -2.045036e-02 2.045036e-02 0.9998 -7.3216 15.7504)" class="st0" width="17.9" height="2.2"/>
					</g>
					<g>
						
							<rect x="757.4" y="373.9" transform="matrix(0.9998 -2.045036e-02 2.045036e-02 0.9998 -7.5078 15.7512)" class="st0" width="17.9" height="2.2"/>
					</g>
					<g>
						
							<rect x="763.7" y="383.8" transform="matrix(0.5653 -0.8249 0.8249 0.5653 18.4385 804.6797)" class="st0" width="18" height="2.2"/>
					</g>
					<g>
						
							<rect x="771.2" y="387.9" transform="matrix(0.5462 -0.8377 0.8377 0.5462 28.4684 830.4404)" class="st0" width="18.9" height="2.2"/>
					</g>
					<g>
						
							<rect x="779.1" y="392.5" transform="matrix(0.5462 -0.8377 0.8377 0.5462 28.2158 839.1792)" class="st0" width="18.9" height="2.2"/>
					</g>
					<g>
						<rect x="788.5" y="395.9" transform="matrix(0.5864 -0.81 0.81 0.5864 8.58 810.85)" class="st0" width="19.6" height="2.2"/>
					</g>
					<g>
						
							<rect x="798.7" y="407.4" transform="matrix(0.9628 -0.2701 0.2701 0.9628 -80.2765 233.5266)" class="st0" width="19.6" height="2.2"/>
					</g>
					<g>
						
							<rect x="800.9" y="417.6" transform="matrix(0.9628 -0.2701 0.2701 0.9628 -82.9649 234.5055)" class="st0" width="19.6" height="2.2"/>
					</g>
					<g>
						
							<rect x="803.1" y="427.9" transform="matrix(0.9628 -0.2701 0.2701 0.9628 -85.6533 235.4842)" class="st0" width="19.6" height="2.2"/>
					</g>
					<g>
						
							<rect x="805.3" y="438.2" transform="matrix(0.9628 -0.2701 0.2701 0.9628 -88.3416 236.4629)" class="st0" width="19.6" height="2.2"/>
					</g>
					<g>
						
							<rect x="807.5" y="448.4" transform="matrix(0.9628 -0.2701 0.2701 0.9628 -91.0299 237.4417)" class="st0" width="19.6" height="2.2"/>
					</g>
					<g>
						
							<rect x="811.5" y="455.6" transform="matrix(0.6588 -0.7523 0.7523 0.6588 -72.8551 770.1857)" class="st0" width="2.2" height="19.6"/>
					</g>
					<g>
						
							<rect x="804.7" y="463.5" transform="matrix(0.6588 -0.7523 0.7523 0.6588 -81.1644 767.7139)" class="st0" width="2.2" height="19.6"/>
					</g>
					<g>
						
							<rect x="797.8" y="471.5" transform="matrix(0.6588 -0.7523 0.7523 0.6588 -89.4741 765.243)" class="st0" width="2.2" height="19.6"/>
					</g>
					<g>
						
							<rect x="790.9" y="479.4" transform="matrix(0.6588 -0.7523 0.7523 0.6588 -97.7825 762.775)" class="st0" width="2.2" height="19.6"/>
					</g>
					<g>
						
							<rect x="784" y="487.3" transform="matrix(0.6588 -0.7523 0.7523 0.6588 -106.093 760.3003)" class="st0" width="2.2" height="19.6"/>
					</g>
					<g>
						
							<rect x="773.7" y="500.9" transform="matrix(0.4803 -0.8771 0.8771 0.4803 -45.2774 944.9932)" class="st0" width="2.2" height="19.6"/>
					</g>
					<g>
						
							<rect x="769.1" y="511.1" transform="matrix(0.4803 -0.8771 0.8771 0.4803 -56.6433 946.2403)" class="st0" width="2.2" height="19.6"/>
					</g>
					<g>
						
							<rect x="763.3" y="521.3" transform="matrix(0.4803 -0.8771 0.8771 0.4803 -68.5954 946.4833)" class="st0" width="2.2" height="19.6"/>
					</g>
					<g>
						
							<rect x="758.7" y="532.7" transform="matrix(0.4803 -0.8771 0.8771 0.4803 -80.9568 948.3282)" class="st0" width="2.2" height="19.6"/>
					</g>
					<g>
						
							<rect x="745.9" y="556.7" transform="matrix(0.9859 -0.1676 0.1676 0.9859 -82.8123 134.5703)" class="st0" width="19.6" height="2.2"/>
					</g>
					<g>
						
							<rect x="748.1" y="567" transform="matrix(0.9859 -0.1676 0.1676 0.9859 -84.5006 135.0863)" class="st0" width="19.6" height="2.2"/>
					</g>
					<g>
						
							<rect x="750.3" y="577.2" transform="matrix(0.9859 -0.1676 0.1676 0.9859 -86.1889 135.6023)" class="st0" width="19.6" height="2.2"/>
					</g>
					<g>
						
							<rect x="755.9" y="588.7" transform="matrix(0.8869 -0.4619 0.4619 0.8869 -185.8204 420.36)" class="st0" width="19.6" height="2.2"/>
					</g>
					<g>
						
							<rect x="762.7" y="597.8" transform="matrix(0.8869 -0.4619 0.4619 0.8869 -189.2802 424.5223)" class="st0" width="19.6" height="2.2"/>
					</g>
					<g>
						
							<rect x="769.5" y="607" transform="matrix(0.8869 -0.4619 0.4619 0.8869 -192.7401 428.6846)" class="st0" width="19.6" height="2.2"/>
					</g>
					<g>
						
							<rect x="749.6" y="162.7" transform="matrix(0.1904 -0.9817 0.9817 0.1904 439.0098 876.1789)" class="st0" width="2.2" height="18.5"/>
					</g>
					<g>
						
							<rect x="745.6" y="169.4" transform="matrix(0.2351 -0.972 0.972 0.2351 396.8783 862.9091)" class="st0" width="2.2" height="19.9"/>
					</g>
					<g>
						
							<rect x="741.8" y="175.9" transform="matrix(0.2168 -0.9762 0.9762 0.2168 400.0294 871.0329)" class="st0" width="2.2" height="20.6"/>
					</g>
					<g>
						
							<rect x="733.2" y="198.7" transform="matrix(0.9716 -0.2368 0.2368 0.9716 -26.1808 181.5051)" class="st0" width="18.8" height="2.2"/>
					</g>
					<g>
						
							<rect x="742" y="206.7" transform="matrix(0.4796 -0.8775 0.8775 0.4796 197.9156 763.9736)" class="st0" width="2.2" height="16.8"/>
					</g>
					<g>
						
							<rect x="737.4" y="213.8" transform="matrix(0.5294 -0.8484 0.8484 0.5294 158.7504 731.1833)" class="st0" width="2.2" height="17.4"/>
					</g>
					<g>
						
							<rect x="732.8" y="220.6" transform="matrix(0.5294 -0.8484 0.8484 0.5294 150.8177 730.4847)" class="st0" width="2.2" height="17.4"/>
					</g>
					<g>
						
							<rect x="728.1" y="233.2" transform="matrix(0.1384 -0.9904 0.9904 0.1384 388.8846 930.5601)" class="st0" width="2.2" height="17.2"/>
					</g>
					<g>
						
							<rect x="726.9" y="242.3" transform="matrix(0.1384 -0.9904 0.9904 0.1384 378.8434 937.2166)" class="st0" width="2.2" height="17.2"/>
					</g>
					<g>
						<polygon class="st0" points="826.4,459.5 812.5,398.3 772.4,377.9 772.6,342 772.6,341.9 758.8,285.2 731.6,256.4 
							734.9,237.2 752.5,209 745.4,192.7 759.7,164.6 749.6,142 748.3,142.6 758.1,164.5 743.8,192.7 750.8,208.9 733.5,236.7 
							733.5,236.9 730.1,256.8 730.3,257.1 757.4,285.9 771.1,342.2 770.9,378.8 811.2,399.3 824.8,459.1 782.2,508.1 759.7,551.6 
							759.8,551.8 765.7,581.5 765.8,581.7 789.7,614.8 790.9,614 767.1,580.9 761.2,551.8 783.4,508.9 						"/>
					</g>
					<g>
						<polygon class="st0" points="813.5,457.6 813.4,457.3 801.1,404.5 800.8,404.4 760.4,383.8 761.8,345.5 761.7,345.4 
							749.1,289.7 748.9,289.5 721.4,259.7 726,235.2 742.2,208.9 734.4,192.9 749.3,165.7 739.9,146.5 738.6,147.1 747.7,165.6 
							732.7,192.8 740.6,208.8 724.6,234.7 724.6,234.8 719.8,260.2 720.1,260.4 747.7,290.4 760.3,345.6 758.9,384.7 799.9,405.5 
							811.9,457.2 773.1,500 747.6,551.4 754.3,586 754.4,586.2 780,619.3 781.2,618.4 755.7,585.4 749.1,551.6 774.3,500.9 						
							"/>
					</g>
				</g>
			</g>
		</g>
	</g>
</g>
<g id="marcadores">
	<g>
		<g>
			<g>
				<path class="st4" d="M766.3,133.2c-1.8-2.3-5.1-2.9-8.3-2.9c-2.9,0-5.3,1.7-7.1,3.8c-1.5,1.7-2.6,3.5-2.6,5.9
					c0,5.4,8.4,19,9.7,19c1,0,9.7-13.6,9.7-19C767.7,137.8,767.5,134.9,766.3,133.2z M758.5,146.8c-3.2,0-5.8-3.2-5.8-6.4
					c0-3.2,2.6-5.8,5.8-5.8s5.5,2.6,5.5,5.8C764,143.7,761.7,146.8,758.5,146.8z"/>
			</g>
		</g>
		<g>
			<g>
				<path class="st4" d="M731.3,182.2c-1.8-2.3-5.1-2.9-8.3-2.9c-2.9,0-5.3,1.7-7.1,3.8c-1.5,1.7-2.6,3.5-2.6,5.9
					c0,5.4,8.4,19,9.7,19c1,0,9.7-13.6,9.7-19C732.7,186.8,732.5,183.9,731.3,182.2z M723.5,195.8c-3.2,0-5.8-3.2-5.8-6.4
					c0-3.2,2.6-5.8,5.8-5.8s5.5,2.6,5.5,5.8C729,192.7,726.7,195.8,723.5,195.8z"/>
			</g>
		</g>
		<g>
			<g>
				<path class="st4" d="M757.3,233.2c-1.8-2.3-5.1-2.9-8.3-2.9c-2.9,0-5.3,1.7-7.1,3.8c-1.5,1.7-2.6,3.5-2.6,5.9
					c0,5.4,8.4,19,9.7,19c1,0,9.7-13.6,9.7-19C758.7,237.8,758.5,234.9,757.3,233.2z M749.5,246.8c-3.2,0-5.8-3.2-5.8-6.4
					c0-3.2,2.6-5.8,5.8-5.8s5.5,2.6,5.5,5.8C755,243.7,752.7,246.8,749.5,246.8z"/>
			</g>
		</g>
		<g>
			<g>
				<path class="st4" d="M746.3,278.2c-1.8-2.3-5.1-2.9-8.3-2.9c-2.9,0-5.3,1.7-7.1,3.8c-1.5,1.7-2.6,3.5-2.6,5.9
					c0,5.4,8.4,19,9.7,19c1,0,9.7-13.6,9.7-19C747.7,282.8,747.5,279.9,746.3,278.2z M738.5,291.8c-3.2,0-5.8-3.2-5.8-6.4
					c0-3.2,2.6-5.8,5.8-5.8s5.5,2.6,5.5,5.8C744,288.7,741.7,291.8,738.5,291.8z"/>
			</g>
		</g>
		<g>
			<g>
				<path class="st4" d="M788.3,305.2c-1.8-2.3-5.1-2.9-8.3-2.9c-2.9,0-5.3,1.7-7.1,3.8c-1.5,1.7-2.6,3.5-2.6,5.9
					c0,5.4,8.4,19,9.7,19c1,0,9.7-13.6,9.7-19C789.7,309.8,789.5,306.9,788.3,305.2z M780.5,318.8c-3.2,0-5.8-3.2-5.8-6.4
					c0-3.2,2.6-5.8,5.8-5.8s5.5,2.6,5.5,5.8C786,315.7,783.7,318.8,780.5,318.8z"/>
			</g>
		</g>
		<g>
			<g>
				<path class="st4" d="M753.3,372.2c-1.8-2.3-5.1-2.9-8.3-2.9c-2.9,0-5.3,1.7-7.1,3.8c-1.5,1.7-2.6,3.5-2.6,5.9
					c0,5.4,8.4,19,9.7,19c1,0,9.7-13.6,9.7-19C754.7,376.8,754.5,373.9,753.3,372.2z M745.5,385.8c-3.2,0-5.8-3.2-5.8-6.4
					c0-3.2,2.6-5.8,5.8-5.8s5.5,2.6,5.5,5.8C751,382.7,748.7,385.8,745.5,385.8z"/>
			</g>
		</g>
		<g>
			<g>
				<path class="st4" d="M821.3,369.2c-1.8-2.3-5.1-2.9-8.3-2.9c-2.9,0-5.3,1.7-7.1,3.8c-1.5,1.7-2.6,3.5-2.6,5.9
					c0,5.4,8.4,19,9.7,19c1,0,9.7-13.6,9.7-19C822.7,373.8,822.5,370.9,821.3,369.2z M813.5,382.8c-3.2,0-5.8-3.2-5.8-6.4
					c0-3.2,2.6-5.8,5.8-5.8s5.5,2.6,5.5,5.8C819,379.7,816.7,382.8,813.5,382.8z"/>
			</g>
		</g>
		<g>
			<g>
				<path class="st4" d="M797.3,442.2c-1.8-2.3-5.1-2.9-8.3-2.9c-2.9,0-5.3,1.7-7.1,3.8c-1.5,1.7-2.6,3.5-2.6,5.9
					c0,5.4,8.4,19,9.7,19c1,0,9.7-13.6,9.7-19C798.7,446.8,798.5,443.9,797.3,442.2z M789.5,455.8c-3.2,0-5.8-3.2-5.8-6.4
					c0-3.2,2.6-5.8,5.8-5.8s5.5,2.6,5.5,5.8C795,452.7,792.7,455.8,789.5,455.8z"/>
			</g>
		</g>
		<g>
			<g>
				<path class="st4" d="M765.3,488.2c-1.8-2.3-5.1-2.9-8.3-2.9c-2.9,0-5.3,1.7-7.1,3.8c-1.5,1.7-2.6,3.5-2.6,5.9
					c0,5.4,8.4,19,9.7,19c1,0,9.7-13.6,9.7-19C766.7,492.8,766.5,489.9,765.3,488.2z M757.5,501.8c-3.2,0-5.8-3.2-5.8-6.4
					c0-3.2,2.6-5.8,5.8-5.8s5.5,2.6,5.5,5.8C763,498.7,760.7,501.8,757.5,501.8z"/>
			</g>
		</g>
		<g>
			<g>
				<path class="st4" d="M745.3,548.2c-1.8-2.3-5.1-2.9-8.3-2.9c-2.9,0-5.3,1.7-7.1,3.8c-1.5,1.7-2.6,3.5-2.6,5.9
					c0,5.4,8.4,19,9.7,19c1,0,9.7-13.6,9.7-19C746.7,552.8,746.5,549.9,745.3,548.2z M737.5,561.8c-3.2,0-5.8-3.2-5.8-6.4
					c0-3.2,2.6-5.8,5.8-5.8s5.5,2.6,5.5,5.8C743,558.7,740.7,561.8,737.5,561.8z"/>
			</g>
		</g>
		<g>
			<g>
				<path class="st4" d="M776.3,604.2c-1.8-2.3-5.1-2.9-8.3-2.9c-2.9,0-5.3,1.7-7.1,3.8c-1.5,1.7-2.6,3.5-2.6,5.9
					c0,5.4,8.4,19,9.7,19c1,0,9.7-13.6,9.7-19C777.7,608.8,777.5,605.9,776.3,604.2z M768.5,617.8c-3.2,0-5.8-3.2-5.8-6.4
					c0-3.2,2.6-5.8,5.8-5.8s5.5,2.6,5.5,5.8C774,614.7,771.7,617.8,768.5,617.8z"/>
			</g>
		</g>
	</g>
</g>
</svg>
